<?xml version="1.0" encoding="UTF-8" standalone="no"?>
<!-- Created with Inkscape (http://www.inkscape.org/) -->

<svg
   width="210mm"
   height="297mm"
   viewBox="0 0 210 297"
   version="1.1"
   id="svg23094"
   inkscape:version="1.1.1 (3bf5ae0d25, 2021-09-20)"
   sodipodi:docname="2ой эш.svg"
   inkscape:export-filename="C:\Users\Админ\Documents\1ый эш.png"
   inkscape:export-xdpi="9.3127985"
   inkscape:export-ydpi="9.3127985"
   xmlns:inkscape="http://www.inkscape.org/namespaces/inkscape"
   xmlns:sodipodi="http://sodipodi.sourceforge.net/DTD/sodipodi-0.dtd"
   xmlns="http://www.w3.org/2000/svg"
   xmlns:svg="http://www.w3.org/2000/svg">
  <sodipodi:namedview
     id="namedview23096"
     pagecolor="#ffffff"
     bordercolor="#111111"
     borderopacity="1"
     inkscape:pageshadow="0"
     inkscape:pageopacity="0"
     inkscape:pagecheckerboard="1"
     inkscape:document-units="mm"
     showgrid="false"
     inkscape:zoom="0.65512531"
     inkscape:cx="232.77989"
     inkscape:cy="618.96555"
     inkscape:window-width="1366"
     inkscape:window-height="705"
     inkscape:window-x="-8"
     inkscape:window-y="-8"
     inkscape:window-maximized="1"
     inkscape:current-layer="layer1" />
  <defs
     id="defs23091" />
  <g
     inkscape:label="Слой 1"
     inkscape:groupmode="layer"
     id="layer1">
    <path
       style="fill:#d5f6ff;stroke:#000000;stroke-width:0.264583px;stroke-linecap:butt;stroke-linejoin:miter;stroke-opacity:1"
       d="m 49.502801,185.45771 c 0,0 0,0 0,0 0,0 2.284616,6.56827 4.283654,6.28269 1.999039,-0.28557 9.995191,-2.57019 11.99423,-2.57019 1.999038,0 2.284616,0.85673 6.282692,1.99904 3.998077,1.14231 6.853846,1.71346 10.566347,0.85673 3.712498,-0.85673 5.140383,-1.42788 7.996153,-1.14231 2.855769,0.28558 3.712501,1.14231 7.139424,1.99904 3.426929,0.85673 3.998079,1.42789 8.567309,1.14231 4.56923,-0.28558 7.99615,-0.85673 10.28077,-1.14231 2.28461,-0.28558 3.7125,-0.28558 7.13942,-0.85673 3.42692,-0.57115 3.99808,-0.57115 7.71058,0.28558 3.7125,0.85673 3.42692,1.99904 8.85288,1.99904 5.42596,0 7.99616,0 11.1375,-0.85673 3.14135,-0.85674 4.85481,-1.71347 7.71058,-1.14231 2.85577,0.57115 2.57019,1.42788 6.56827,1.99904 3.99808,0.57115 5.99711,2.28461 8.56731,1.1423 2.57019,-1.1423 2.28461,-2.28461 5.99711,-2.28461 3.7125,0 3.7125,0.28558 6.85385,0.85673 3.14134,0.57115 1.71346,-7.13942 1.71346,-7.13942 z"
       id="path14640" />
    <path
       style="fill:#d5f6ff;stroke:#00ffff;stroke-width:0.264583px;stroke-linecap:butt;stroke-linejoin:miter;stroke-opacity:1"
       d="m 49.502801,185.45771 c 0,0 -0.571153,-12.56538 0.571153,-18.5625 1.142307,-5.99711 -0.571153,-20.56154 -0.285575,-24.55961 0.285575,-3.99808 0,-13.13654 1.142307,-20.84712 1.142307,-7.71057 -0.856732,-8.56731 4.56923,-16.56346 5.425961,-7.99616 3.998076,-9.99519 9.709615,-12.27981 5.711539,-2.28461 6.568271,-2.85577 12.565385,-1.42788 5.997115,1.42788 11.137501,3.42692 13.136539,6.85385 1.999038,3.42692 3.712498,4.28365 4.854808,9.13846 1.142306,4.8548 2.85577,7.425 3.14135,11.70865 0.28557,4.28365 0.28557,5.42596 0.28557,11.42308 0,5.99711 -0.57115,8.85288 1.999047,14.56442 2.57019,5.71154 0.28557,7.99615 7.425,8.85288 7.13942,0.85673 9.42403,0.57116 15.70673,1.42789 6.28269,0.85673 13.42211,1.71346 18.56249,2.57019 5.14039,0.85673 7.425,-0.28558 15.70673,1.71346 8.28174,1.99904 8.56731,0.85673 13.42212,3.99808 4.85481,3.14135 7.71058,3.99808 9.99519,6.56827 2.28462,2.57019 2.85577,3.99807 4.56923,7.99615 1.71347,3.99808 2.28462,5.71154 2.28462,8.85289 0,3.14134 -139.361539,-1.42789 -139.361539,-1.42789 z"
       id="path14472" />
    <path
       style="fill:#b7c4c8;stroke:#c8ffff;stroke-width:0.264583px;stroke-linecap:butt;stroke-linejoin:miter;stroke-opacity:1"
       d="m 55.381374,99.982381 c 0,0 5.883541,-6.0482 5.455939,-13.26012 -0.427607,-7.21192 -0.533075,-5.93914 -1.649803,-12.56741 -1.116729,-6.62827 0.738985,-7.371561 -2.23202,-10.180777 -2.971008,-2.809221 -4.667804,-2.437219 -5.942015,-5.618443 -1.274212,-3.181224 -1.699666,-5.77951 1.26919,-7.583925 2.968856,-1.804415 4.984203,-1.381113 5.886414,0.103315 0.90221,1.484426 3.447758,1.695361 2.38879,5.195854 -1.058978,3.500496 -1.268477,9.121809 -0.896475,10.818599 0.372002,1.696797 1.010543,6.363167 2.073106,10.552067 1.062559,4.1889 1.170174,7.52975 2.020369,11.18845 0.850188,3.65869 1.116008,5.09039 1.859295,6.9461 0.743291,1.85571 1.805133,4.506729 1.805133,4.506729 z"
       id="path15385-2" />
    <path
       style="fill:#006680;stroke:#000000;stroke-width:0.264583px;stroke-linecap:butt;stroke-linejoin:miter;stroke-opacity:1"
       d="m 53.117307,109.94711 c 0,0 2.570192,-3.99807 6.853846,-5.42596 4.283652,-1.42788 9.995191,-3.14135 14.564424,-1.42788 4.56923,1.71346 8.281728,3.99807 8.567306,8.85288 0.285578,4.85481 1.713463,9.70962 0.285578,14.85 -1.427885,5.14039 -3.712501,10.28077 -3.426923,17.13462 0.285575,6.85384 -3.426923,7.71057 1.999038,15.70673 5.425961,7.99615 5.425961,12.2798 11.708654,15.70673 6.282692,3.42692 8.85288,3.99807 15.99231,3.99807 7.13942,0 10.28076,-0.28557 16.56346,0 6.28269,0.28558 8.56731,-1.1423 15.9923,0.28558 7.425,1.42788 10.85193,1.71346 18.84808,2.85577 7.99616,1.14231 11.1375,2.85577 17.13462,1.71346 5.99711,-1.1423 8.28173,-1.1423 8.28173,-1.1423 0,0 -0.28558,-7.99616 -1.42789,-9.13847 -1.14231,-1.1423 -3.14134,-3.99807 -6.28269,-6.28269 -3.14135,-2.28462 -3.14135,-3.14134 -8.28173,-4.85481 -5.14039,-1.71346 -7.99615,-3.7125 -14.27885,-3.7125 -6.28269,0 -11.1375,-1.42788 -17.70577,-1.71346 -6.56826,-0.28558 -13.70769,-1.14231 -19.13365,-1.71346 -5.42596,-0.57115 -5.71154,2.57019 -10.56634,-2.85577 -4.85481,-5.42596 -3.99808,-6.28269 -6.2827,-12.27981 -2.28461,-5.99711 -2.855766,-14.56442 -3.141344,-19.7048 -0.285575,-5.14039 2.284614,-11.99423 -1.71346,-16.56347 C 93.66923,99.666344 94.240383,98.809613 90.527882,96.239421 86.815384,93.66923 84.24519,93.098076 82.246151,91.955767 80.247113,90.81346 75.392306,88.243269 70.251922,89.671151 c -5.140385,1.427885 -11.423078,5.425964 -13.422116,7.425002 -1.999038,1.999038 -3.712499,12.850957 -3.712499,12.850957 z"
       id="path14605" />
    <path
       style="fill:#b7c4c8;stroke:#c8ffff;stroke-width:0.264583px;stroke-linecap:butt;stroke-linejoin:miter;stroke-opacity:1"
       d="m 80.247115,104.52115 c 0,0 7.710574,-3.42692 9.995191,-10.280766 2.284616,-6.853846 1.71346,-5.711539 3.141345,-12.279807 1.427884,-6.568271 3.426923,-6.568271 1.713462,-10.280769 -1.713462,-3.712501 -3.426923,-3.998079 -3.426923,-7.425002 0,-3.426923 0.571154,-5.997115 3.998077,-6.568268 3.426923,-0.571154 5.140383,0.571153 5.425963,2.284616 0.28558,1.71346 2.57019,2.855767 0.28558,5.711537 -2.28462,2.855769 -4.569236,7.996155 -4.854812,9.709615 -0.285578,1.713463 -1.427885,6.282693 -1.999038,10.566347 -0.571153,4.283654 -1.713463,7.424999 -2.284616,11.1375 -0.571154,3.712497 -0.856732,5.140387 -0.856732,7.139417 0,1.99904 0,4.85481 0,4.85481 z"
       id="path15385" />
    <path
       style="fill:#dbe3e2;stroke:#000000;stroke-width:0.264583px;stroke-linecap:butt;stroke-linejoin:miter;stroke-opacity:1"
       d="m 55.116344,115.87283 c 0.28558,-0.42836 0.85673,-1.07091 0.85673,-1.07091 0,0 0.57116,-0.49976 1.14231,-0.42837 0.57115,0.0714 0.92813,0.28558 1.42788,0.49976 0.49977,0.21418 1.21371,0.92813 1.2851,1.49928 0.0714,0.57115 0.28558,0.64255 0.14279,1.42789 -0.14279,0.78533 0,1.2137 -0.64255,1.49927 -0.64255,0.28558 -0.57115,0.42837 -1.28509,0.57116 -0.71395,0.14279 -0.49976,0.64255 -1.64207,0.21418 -1.14231,-0.42836 -1.2851,0.21418 -1.49928,-0.99952 -0.21418,-1.2137 -0.28558,-1.42788 -0.21418,-2.28461 0.0714,-0.85673 0.42836,-0.92813 0.42836,-0.92813 z"
       id="path16028" />
    <path
       style="fill:#dbe3e2;stroke:#000000;stroke-width:0.264583px;stroke-linecap:butt;stroke-linejoin:miter;stroke-opacity:1"
       d="m 60.827882,115.94422 c 0.28558,-0.42836 0.85673,-1.07091 0.85673,-1.07091 0,0 0.57116,-0.49976 1.14231,-0.42837 0.57115,0.0714 0.92813,0.28558 1.42788,0.49976 0.49977,0.21418 1.21371,0.92813 1.2851,1.49928 0.0714,0.57115 0.28558,0.64255 0.14279,1.42789 -0.14279,0.78533 0,1.2137 -0.64255,1.49927 -0.64255,0.28558 -0.57115,0.42837 -1.28509,0.57116 -0.71395,0.14279 -0.49976,0.64255 -1.64207,0.21418 -1.14231,-0.42836 -1.2851,0.21418 -1.49928,-0.99952 -0.21418,-1.2137 -0.28558,-1.42788 -0.21418,-2.28461 0.0714,-0.85673 0.42836,-0.92813 0.42836,-0.92813 z"
       id="path16244" />
    <path
       style="fill:#00222b;stroke:#000000;stroke-width:0.0592926px;stroke-linecap:butt;stroke-linejoin:miter;stroke-opacity:1"
       d="m 56.880741,117.36487 c 0.06816,-0.0901 0.204465,-0.22534 0.204465,-0.22534 0,0 0.136311,-0.10517 0.27262,-0.0901 0.136309,0.015 0.221505,0.0601 0.340773,0.10517 0.119274,0.0451 0.289661,0.1953 0.306698,0.31549 0.01704,0.12018 0.06816,0.13521 0.03408,0.30047 -0.03408,0.16525 0,0.25539 -0.153349,0.31548 -0.153349,0.0601 -0.136309,0.0901 -0.306695,0.12019 -0.170389,0.0301 -0.119272,0.13521 -0.391892,0.0451 -0.27262,-0.0901 -0.306698,0.0451 -0.357813,-0.21032 -0.05112,-0.2554 -0.06816,-0.30047 -0.05112,-0.48075 0.01704,-0.18028 0.102231,-0.19531 0.102231,-0.19531 z"
       id="path16246" />
    <path
       style="fill:#00222b;stroke:#000000;stroke-width:0.0592926px;stroke-linecap:butt;stroke-linejoin:miter;stroke-opacity:1"
       d="m 62.592279,117.43626 c 0.06816,-0.0901 0.204465,-0.22534 0.204465,-0.22534 0,0 0.136311,-0.10517 0.27262,-0.0901 0.136309,0.015 0.221505,0.0601 0.340773,0.10517 0.119274,0.0451 0.289661,0.1953 0.306698,0.31549 0.01704,0.12018 0.06816,0.13521 0.03408,0.30047 -0.03408,0.16525 0,0.25539 -0.153349,0.31548 -0.153349,0.0601 -0.136309,0.0901 -0.306695,0.12019 -0.170389,0.0301 -0.119272,0.13521 -0.391892,0.0451 -0.27262,-0.0901 -0.306698,0.0451 -0.357813,-0.21032 -0.05112,-0.2554 -0.06816,-0.30047 -0.05112,-0.48075 0.01704,-0.18028 0.102231,-0.19531 0.102231,-0.19531 z"
       id="path16320" />
  </g>
</svg>
